<?xml version="1.0" standalone="no"?>
<!DOCTYPE svg PUBLIC "-//W3C//DTD SVG 20010904//EN"
 "http://www.w3.org/TR/2001/REC-SVG-20010904/DTD/svg10.dtd">
<svg version="1.0" xmlns="http://www.w3.org/2000/svg"
 width="35pt" height="35pt" viewBox="0 0 1915.000000 1915.000000"
 preserveAspectRatio="xMidYMid meet">
<metadata>
Created by potrace 1.15, written by Peter Selinger 2001-2017
</metadata>
<g transform="translate(0.000000,1915.000000) scale(0.100000,-0.100000)"
fill="#000000" stroke="none">
<path d="M6945 19144 c-773 -15 -1626 -57 -2005 -100 -1098 -124 -2051 -470
-2775 -1009 -374 -277 -773 -676 -1050 -1050 -539 -724 -885 -1677 -1009
-2775 -35 -307 -56 -660 -88 -1505 -18 -472 -18 -5788 0 -6260 42 -1106 68
-1442 143 -1900 141 -854 439 -1636 857 -2245 317 -461 765 -915 1233 -1247
649 -460 1523 -786 2464 -917 428 -60 718 -79 1770 -118 488 -19 5697 -18
6180 0 1066 40 1373 61 1805 123 723 103 1462 344 2025 658 555 310 1098 787
1504 1320 579 760 939 1760 1055 2931 30 297 49 646 78 1440 18 492 18 5678 0
6170 -38 1038 -59 1352 -118 1775 -108 775 -350 1515 -690 2107 -388 677
-1001 1307 -1669 1716 -664 406 -1487 673 -2405 781 -331 39 -547 52 -1500 92
-235 10 -5342 21 -5805 13z m5590 -1743 c951 -33 1299 -55 1630 -102 530 -75
935 -195 1350 -399 308 -152 530 -314 801 -584 356 -357 559 -676 743 -1169
194 -519 275 -1025 316 -1977 32 -740 36 -1068 42 -2985 5 -1929 -4 -3264 -27
-3845 -19 -477 -40 -879 -56 -1042 -87 -936 -341 -1657 -775 -2198 -108 -135
-374 -401 -509 -509 -541 -434 -1261 -688 -2198 -775 -163 -16 -565 -37 -1042
-56 -580 -23 -1916 -32 -3845 -27 -1916 6 -2244 10 -2985 42 -952 41 -1458
122 -1977 316 -493 184 -812 387 -1169 743 -270 271 -432 493 -584 801 -197
400 -312 778 -389 1282 -55 354 -79 729 -113 1743 -18 530 -18 5300 0 5830 27
800 47 1190 78 1475 93 870 350 1573 762 2085 98 122 390 414 512 512 512 412
1214 668 2085 762 382 41 1328 81 2135 90 660 7 4944 -3 5215 -13z"/>
<path d="M14515 15829 c-243 -35 -497 -168 -668 -348 -507 -538 -384 -1420
251 -1790 364 -212 819 -210 1181 5 514 305 705 957 441 1500 -217 446 -708
704 -1205 633z"/>
<path d="M9350 14493 c-678 -28 -1392 -215 -2005 -528 -1840 -938 -2897 -2910
-2659 -4960 128 -1107 619 -2120 1409 -2910 1223 -1224 2982 -1711 4670 -1295
1760 434 3151 1825 3585 3585 271 1097 162 2245 -309 3261 -242 524 -572 996
-986 1409 -983 984 -2301 1495 -3705 1438z m500 -1743 c1065 -96 2006 -713
2523 -1655 357 -651 472 -1426 321 -2163 -254 -1237 -1239 -2222 -2476 -2476
-195 -40 -338 -56 -553 -63 -1123 -33 -2179 529 -2783 1482 -557 881 -647
1985 -240 2945 455 1072 1481 1822 2638 1929 136 12 436 13 570 1z"/>
</g>
</svg>
