<?xml version="1.0" encoding="UTF-8" standalone="no"?>
<!-- Created with Inkscape (http://www.inkscape.org/) -->

<svg
   version="1.1"
   id="svg2"
   width="150"
   height="110"
   viewBox="0 0 141.64 106.66667"
   sodipodi:docname="haiku-hero-blackwhite2.eps"
   xmlns:inkscape="http://www.inkscape.org/namespaces/inkscape"
   xmlns:sodipodi="http://sodipodi.sourceforge.net/DTD/sodipodi-0.dtd"
   xmlns="http://www.w3.org/2000/svg"
   xmlns:svg="http://www.w3.org/2000/svg">
  <defs
     id="defs6" />
  <sodipodi:namedview
     id="namedview4"
     pagecolor="#ffffff"
     bordercolor="#000000"
     borderopacity="0.25"
     inkscape:showpageshadow="2"
     inkscape:pageopacity="0.0"
     inkscape:pagecheckerboard="0"
     inkscape:deskcolor="#d1d1d1" />
  <g
     id="g8"
     inkscape:groupmode="layer"
     inkscape:label="ink_ext_XXXXXX"
     transform="matrix(1.3333333,0,0,-1.3333333,0,106.66667)">
    <g
       id="g10"
       transform="scale(0.1)">
      <path
         d="m 313.219,227.871 c 2.722,2.879 5.312,5.649 8.172,8.688 4.91,-6.11 9.668,-12.028 14.429,-17.95 0.559,0.172 1.032,0.231 1.379,0.45 10.711,6.543 10.903,9.293 1.262,17.312 -0.449,0.379 -0.891,0.758 -1.352,1.141 -7.839,6.679 -7.597,9.738 1.289,15.808 13.422,-12.789 26.903,-25.55 40.301,-38.422 3.071,-2.957 2.571,-4.976 -1.179,-8.976 -2.692,-2.863 -5.231,-3 -7.879,-0.152 -3.903,4.218 -7.743,8.492 -11.532,12.66 -0.468,-0.09 -0.789,-0.071 -1.031,-0.2 -11.129,-6.582 -11.308,-7.808 -2.18,-16.691 1.801,-1.75 3.633,-3.461 5.512,-5.129 3,-2.68 2.668,-5.25 -0.031,-7.93 -3.59,-3.589 -6.051,-3.968 -9.039,-0.89 -6.461,6.68 -12.809,13.48 -19.192,20.23 -6.269,6.641 -12.546,13.289 -18.929,20.051"
         style="fill:#000000;fill-opacity:1;fill-rule:nonzero;stroke:none"
         id="path12" />
      <path
         d="m 374.949,289.77 c 8.571,-3.629 16.77,-7.09 24.961,-10.579 8.68,-3.691 17.391,-7.261 25.981,-11.16 2.398,-1.101 4.379,-3.14 6.621,-4.793 -2.973,-4.66 -5.711,-7.449 -11.121,-7.929 -3.071,-0.278 -6.743,-3.27 -8.551,-6.059 -3.399,-5.262 -5.602,-11.27 -8.418,-16.93 -0.453,-0.91 -1.492,-2.211 -2.152,-2.148 -1.02,0.09 -2.45,0.976 -2.86,1.898 -8.16,18.61 -16.199,37.258 -24.25,55.918 -0.14,0.352 -0.101,0.793 -0.211,1.782 z m 23.313,-22.93 c -0.34,-0.57 -0.684,-1.129 -1.012,-1.699 2.16,-4.2 4.352,-8.391 6.719,-12.981 2.902,3.199 5.39,5.942 8.261,9.11 -5.121,2.039 -9.55,3.8 -13.968,5.57"
         style="fill:#000000;fill-opacity:1;fill-rule:nonzero;stroke:none"
         id="path14" />
      <path
         d="m 417.441,317.391 c -2.32,1.48 -4.621,2.449 -6.171,4.097 -1.09,1.184 -1.661,3.371 -1.469,4.992 0.097,0.821 2.359,1.77 3.738,1.942 2.59,0.328 5.289,0.418 7.871,0.058 1.461,-0.199 3.621,-1.21 3.969,-2.332 0.383,-1.238 -0.52,-3.437 -1.59,-4.468 -1.75,-1.711 -4.078,-2.809 -6.348,-4.289"
         style="fill:#000000;fill-opacity:1;fill-rule:nonzero;stroke:none"
         id="path16" />
      <path
         d="m 489.699,320.59 c -2.648,-2.692 -5.097,-5.18 -7.82,-7.949 -13.891,14.738 -27.899,29.597 -42.25,44.828 2.961,2.133 5.781,4.172 9.062,6.543 13.707,-14.5 27.411,-29.024 41.008,-43.422"
         style="fill:#000000;fill-opacity:1;fill-rule:nonzero;stroke:none"
         id="path18" />
      <path
         d="m 473.199,391.441 c 2.481,2.258 4.75,4.34 7.332,6.7 5.18,-4.75 10.418,-9.539 15.629,-14.321 0.371,0.211 0.719,0.43 1.09,0.629 -1.57,5.852 -3.262,11.653 -4.648,17.539 -1.852,7.801 1.199,13.012 9.136,15.801 1.864,-6.82 4.063,-13.539 5.5,-20.43 1.453,-7 5.332,-10.55 12.293,-11.91 8.789,-1.73 17.418,-4.219 26.141,-6.371 -2.641,-8.808 -7.75,-11.637 -16.692,-9.508 -4.968,1.18 -9.902,2.442 -14.859,3.68 -0.359,-0.43 -0.742,-0.852 -1.109,-1.281 1.859,-3.489 3.179,-7.469 5.718,-10.367 4.668,-5.372 4.93,-8.114 -0.339,-12.973 -0.969,-0.891 -2.051,-1.66 -3.403,-2.738 -13.886,15.121 -27.66,30.14 -41.789,45.55"
         style="fill:#000000;fill-opacity:1;fill-rule:nonzero;stroke:none"
         id="path20" />
      <path
         d="m 519.719,437.988 c 3.801,4.024 7.312,7.742 10.992,11.621 9.008,-9.8 17.769,-19.347 26.578,-28.879 1.191,-1.289 2.492,-2.531 3.93,-3.511 3.191,-2.188 6.109,-1.41 8.73,1.211 2.992,3.011 1.949,5.941 -0.308,8.648 -6.801,8.16 -13.68,16.231 -20.539,24.332 -1.723,2.031 -3.332,4.149 -5.161,6.07 -0.832,0.879 -2.089,1.36 -3.41,2.18 1.731,1.91 3.867,4.27 6.879,7.61 9.371,-9.719 18.57,-19.258 27.77,-28.809 1.441,-1.481 2.832,-3 4.199,-4.539 6.512,-7.25 6.512,-17.16 0,-24.281 -7.309,-8 -16.578,-9.262 -24.738,-2.43 -11.743,9.828 -23.02,20.23 -34.922,30.777"
         style="fill:#000000;fill-opacity:1;fill-rule:nonzero;stroke:none"
         id="path22" />
      <path
         d="m 513.77,452.84 c 7.449,6.98 14.332,13.43 21.421,20.082 2.098,-2.211 4.079,-4.293 5.84,-6.141 -6.64,-6.652 -13.07,-13.109 -19.801,-19.851 -2.308,1.832 -4.82,3.808 -7.46,5.91"
         style="fill:#000000;fill-opacity:1;fill-rule:nonzero;stroke:none"
         id="path24" />
      <path
         d="M 660.23,464.379 C 538.289,337.32 416.602,210.531 294.43,83.25 c 208.41,0 415.781,0 623.691,0 C 832.059,210.461 746.301,337.199 660.23,464.379 Z M 475.941,161.301 c -2.339,-3.34 -5.492,-3.563 -8.5,-0.231 -4.132,4.571 -8.011,9.352 -12.16,14.211 -3.031,-3.211 -5.961,-6.281 -9.172,-9.672 3.942,-4.289 7.782,-8.539 11.719,-12.718 3.313,-3.512 3.742,-6.11 1.281,-8.821 -2.578,-2.82 -7.328,-3.191 -10.39,-0.468 -3.86,3.429 -7.5,7.078 -11.168,10.726 -8.891,8.82 -17.731,17.703 -26.492,26.453 0.179,0.578 0.242,0.879 0.371,1.141 4.672,8.848 8.058,9.258 14.59,1.828 1.949,-2.211 3.839,-4.57 6.191,-6.281 1.449,-1.059 4.258,-1.981 5.449,-1.258 1.891,1.117 3.602,3.5 4.141,5.668 0.949,3.762 -1.27,6.762 -4.063,9.23 -0.769,0.68 -1.578,1.332 -2.367,1.969 -7.621,6.172 -7.473,10.031 1.098,16.063 13.082,-12.672 26.019,-25.153 38.89,-37.7 2.653,-2.582 2.762,-7.043 0.582,-10.14 z m 32.629,33 c -2.8,-2.492 -6.039,-1.602 -8.39,0.699 -11.59,11.34 -23.078,22.82 -34.5,34.352 -2.5,2.527 -3.282,5.957 -0.899,8.796 5.918,7.114 12.199,13.891 18.598,21.102 3.242,-3.762 6.101,-7.059 9.133,-10.59 -4.332,-4.851 -8.524,-9.539 -12.852,-14.371 5.66,-8.609 7.871,-8.848 14.301,-1.117 2.609,3.148 5.25,4.406 9.18,3.328 4.609,-1.281 6.269,-6.539 2.738,-9.879 -2.758,-2.609 -6.008,-4.699 -9.07,-7.043 -0.02,-0.25 -0.168,-0.609 -0.047,-0.777 7.168,-10.621 9.41,-10.653 16.898,-0.223 1.289,1.793 2.559,3.602 3.57,5.024 3.61,-3.571 7.219,-7.153 11.239,-11.122 -6.27,-5.75 -13,-12.07 -19.899,-18.179 z m 40.621,62.39 c 2.149,-2.492 3.918,-4.562 5.707,-6.589 2.832,-3.211 2.743,-5.704 -0.347,-8.84 -3.09,-3.153 -5.981,-3.582 -8.871,-0.692 -13.008,13.071 -25.899,26.27 -39.821,40.442 4,3.66 8.262,7.328 12.25,11.269 12.879,12.699 32.911,3.821 36.852,-9.992 1.16,-4.078 1.629,-8.34 2.508,-13.039 6.242,-0.801 13.043,-1.66 19.89,-2.52 -3.16,-10.16 -8.949,-12.242 -28.168,-10.039 z m 46.68,39.618 c -17.351,-0.559 -31.18,12.691 -31.742,30.429 -0.598,18.942 12.351,32.543 31.492,33.071 17.457,0.48 32.527,-13.52 33,-30.68 0.52,-18.859 -12.75,-32.18 -32.75,-32.82"
         style="fill:#000000;fill-opacity:1;fill-rule:nonzero;stroke:none"
         id="path26" />
      <path
         d="m 596.75,346.52 c -11.75,-0.032 -19.84,-7.848 -19.738,-19.11 0.09,-10.308 8.937,-19.25 19.109,-19.289 10.688,-0.051 19.188,8.5 19.309,19.41 0.121,11.278 -7.489,19.028 -18.68,18.989"
         style="fill:#000000;fill-opacity:1;fill-rule:nonzero;stroke:none"
         id="path28" />
      <path
         d="m 540.211,282.641 c -5.949,4.757 -12.02,3.379 -17.34,-4.243 3.559,-2.968 6.981,-5.777 10.328,-8.66 5.09,-4.347 8.852,-3.129 10.332,3.453 0.848,3.778 -0.25,6.989 -3.32,9.45"
         style="fill:#000000;fill-opacity:1;fill-rule:nonzero;stroke:none"
         id="path30" />
      <path
         d="m 533.891,783.969 c 0.48,-1.008 0.859,-2.09 1.48,-3.02 C 664.539,587.52 793.73,394.078 922.922,200.66 963.371,140.09 1003.84,79.5508 1044.31,18.9883 c 0.57,-0.8477 1.08,-1.7188 1.86,-2.9297 -341.92,0 -683.58,0 -1025.6387,0 0.8476,1.3516 1.5468,2.5625 2.3281,3.7227 C 83.6602,110.871 144.48,201.961 205.301,293.051 c 46.988,70.379 93.98,140.769 141,211.129 62.148,93.019 124.347,186.019 186.508,279.039 0.132,0.211 0.132,0.519 0.191,0.769 0.289,-0.019 0.602,-0.019 0.891,-0.019 z M 939.551,71.7891 C 803.328,273.102 667.578,473.73 531.551,674.781 395.461,473.629 259.691,272.941 123.59,71.7891 c 272.41,0 543.75,0 815.961,0"
         style="fill:#000000;fill-opacity:1;fill-rule:nonzero;stroke:none"
         id="path32" />
    </g>
  </g>
</svg>
